<svg id="visual" viewBox="0 0 1900 1000" width="1900" height="1000" xmlns="http://www.w3.org/2000/svg" xmlns:xlink="http://www.w3.org/1999/xlink" version="1.1"><rect x="0" y="0" width="1900" height="1000" fill="#3A6B35"></rect><path d="M0 382L79.2 380.3C158.3 378.7 316.7 375.3 475 346.8C633.3 318.3 791.7 264.7 950 278.2C1108.3 291.7 1266.7 372.3 1425 366C1583.3 359.7 1741.7 266.3 1820.8 219.7L1900 173L1900 0L1820.8 0C1741.7 0 1583.3 0 1425 0C1266.7 0 1108.3 0 950 0C791.7 0 633.3 0 475 0C316.7 0 158.3 0 79.2 0L0 0Z" fill="#E3B448" stroke-linecap="round" stroke-linejoin="miter"></path></svg>