<svg id="visual" viewBox="0 0 900 450" width="900" height="450" xmlns="http://www.w3.org/2000/svg" xmlns:xlink="http://www.w3.org/1999/xlink" version="1.1"><rect x="0" y="0" width="900" height="450" fill="#E3B448"></rect><path d="M0 70L21.5 77.7C43 85.3 86 100.7 128.8 114.3C171.7 128 214.3 140 257.2 131.8C300 123.7 343 95.3 385.8 88.8C428.7 82.3 471.3 97.7 514.2 106.5C557 115.3 600 117.7 642.8 111.2C685.7 104.7 728.3 89.3 771.2 93.8C814 98.3 857 122.7 878.5 134.8L900 147L900 0L878.5 0C857 0 814 0 771.2 0C728.3 0 685.7 0 642.8 0C600 0 557 0 514.2 0C471.3 0 428.7 0 385.8 0C343 0 300 0 257.2 0C214.3 0 171.7 0 128.8 0C86 0 43 0 21.5 0L0 0Z" fill="#3A6B35" stroke-linecap="round" stroke-linejoin="miter"></path></svg>